<mxfile host="app.diagrams.net" modified="2024-02-07T15:16:43.150Z" agent="Mozilla/5.0 (Windows NT 10.0; Win64; x64) AppleWebKit/537.36 (KHTML, like Gecko) Chrome/121.0.0.0 Safari/537.36" version="23.1.1" etag="CLRann7El5Sfam-fMIM5" type="github">
  <diagram name="Page-1" id="jikzWlTDac7GGxeBz_IT">
    <mxGraphModel>
      <root>
        <mxCell id="0" />
        <mxCell id="1" parent="0" />
      </root>
    </mxGraphModel>
  </diagram>
</mxfile>
